<svg width="22" height="21" viewBox="0 0 22 21" fill="none" xmlns="http://www.w3.org/2000/svg">
<g clip-path="url(#clip0_1230_54)">
<path d="M21.6501 3.79771C21.1613 4.00461 20.6539 4.16783 20.1332 4.286C20.7069 3.76561 21.1383 3.1147 21.3816 2.38817C21.4511 2.18076 21.2151 2.0014 21.0189 2.11245C20.2946 2.52257 19.5143 2.83023 18.6998 3.02699C18.6526 3.03841 18.6038 3.0442 18.5549 3.0442C18.4065 3.0442 18.2623 2.99161 18.1489 2.89618C17.2823 2.16714 16.1677 1.76562 15.0106 1.76562C14.5099 1.76562 14.0043 1.84012 13.508 1.98707C11.9701 2.44239 10.7834 3.65332 10.4111 5.14734C10.2714 5.70773 10.2336 6.26863 10.2986 6.81442C10.3061 6.87714 10.275 6.92092 10.2559 6.94145C10.2223 6.97744 10.1746 6.99808 10.1251 6.99808C10.1195 6.99808 10.1138 6.99782 10.1082 6.99731C6.74177 6.69876 3.70606 5.15062 1.56026 2.63813C1.45084 2.50997 1.24101 2.52569 1.15379 2.66849C0.733592 3.35662 0.511529 4.14367 0.511529 4.94454C0.511529 6.17191 1.02812 7.32857 1.92543 8.17179C1.54809 8.08639 1.18287 7.95188 0.843604 7.77202C0.679471 7.68498 0.477523 7.79685 0.475216 7.97605C0.451723 9.79939 1.57008 11.4218 3.24542 12.1524C3.21168 12.1532 3.17794 12.1535 3.14415 12.1535C2.87859 12.1535 2.6097 12.1291 2.34505 12.0808C2.16021 12.0471 2.00493 12.2145 2.06232 12.3855C2.6061 14.006 4.06785 15.2005 5.8171 15.4718C4.36533 16.402 2.67471 16.8927 0.915103 16.8927L0.366545 16.8924C0.197531 16.8924 0.054585 16.9976 0.0115134 17.1538C-0.0309144 17.3077 0.0472365 17.4701 0.191363 17.5501C2.17415 18.6516 4.43581 19.2337 6.73282 19.2337C8.74345 19.2337 10.6242 18.8529 12.3229 18.1018C13.8802 17.4132 15.2564 16.4288 16.4131 15.1761C17.4907 14.0092 18.3334 12.662 18.9176 11.1722C19.4745 9.75208 19.7689 8.23676 19.7689 6.79005V6.72114C19.7688 6.48884 19.8789 6.27027 20.0709 6.12148C20.7996 5.55674 21.4342 4.89196 21.9569 4.14561C22.0949 3.94854 21.8772 3.70155 21.6501 3.79771Z" fill="#DDDDDD"/>
</g>
<defs>
<clipPath id="clip0_1230_54">
<rect width="22" height="21" fill="white"/>
</clipPath>
</defs>
</svg>
