<svg width="21" height="21" viewBox="0 0 21 21" fill="none" xmlns="http://www.w3.org/2000/svg">
<g clip-path="url(#clip0_1790_62)">
<path d="M14.744 0H6.25601C2.80643 0 0 2.80643 0 6.25601V14.744C0 18.1936 2.80643 21 6.25601 21H14.744C18.1936 21 21 18.1936 21 14.744V6.25601C21 2.80643 18.1935 0 14.744 0ZM18.8874 14.744C18.8874 17.0323 17.0323 18.8874 14.744 18.8874H6.25601C3.96769 18.8874 2.1126 17.0323 2.1126 14.744V6.25601C2.1126 3.96765 3.96769 2.1126 6.25601 2.1126H14.744C17.0323 2.1126 18.8874 3.96765 18.8874 6.25601V14.744Z" fill="#DDDDDD"/>
<path d="M10.5 5.06824C7.5051 5.06824 5.0686 7.50473 5.0686 10.4995C5.0686 13.4944 7.5051 15.9309 10.5 15.9309C13.4948 15.9309 15.9313 13.4944 15.9313 10.4995C15.9313 7.5047 13.4948 5.06824 10.5 5.06824ZM10.5 13.8183C8.66704 13.8183 7.1812 12.3325 7.1812 10.4996C7.1812 8.66668 8.66708 7.18084 10.5 7.18084C12.3329 7.18084 13.8187 8.66668 13.8187 10.4996C13.8187 12.3325 12.3328 13.8183 10.5 13.8183Z" fill="#DDDDDD"/>
<path d="M15.9418 6.41152C16.6606 6.41152 17.2433 5.82883 17.2433 5.11006C17.2433 4.39128 16.6606 3.80859 15.9418 3.80859C15.2231 3.80859 14.6404 4.39128 14.6404 5.11006C14.6404 5.82883 15.2231 6.41152 15.9418 6.41152Z" fill="#DDDDDD"/>
</g>
<defs>
<clipPath id="clip0_1790_62">
<rect width="21" height="21" fill="white"/>
</clipPath>
</defs>
</svg>
