<svg width="18" height="18" viewBox="0 0 18 18" fill="none" xmlns="http://www.w3.org/2000/svg">
<g clip-path="url(#clip0_1790_46)">
<path d="M12.1483 2.15079C9.41962 -0.619004 4.94621 -0.652438 2.17637 2.07613C-0.593479 4.80481 -0.62697 9.27816 2.10171 12.048C4.41662 14.3978 7.88282 14.777 10.6038 13.1723C10.6038 13.1723 10.8005 13.0571 10.9568 13.2159C11.8494 14.122 14.5274 16.8403 14.5274 16.8403C15.238 17.5617 16.2379 17.7397 16.8778 17.1094L16.9878 17.0009C17.6277 16.3707 17.4648 15.3682 16.7541 14.6468C16.7541 14.6468 14.0817 11.9342 13.191 11.03C13.0271 10.8636 13.1453 10.6687 13.1453 10.6687C14.7904 7.97211 14.4632 4.50063 12.1483 2.15079ZM10.7816 10.8111C8.73493 12.8273 5.42961 12.8025 3.4134 10.7559C1.39724 8.70924 1.42193 5.40392 3.46856 3.38776C5.51514 1.37155 8.82051 1.39629 10.8367 3.44293C12.8528 5.48956 12.8281 8.79482 10.7816 10.8111Z" fill="white"/>
<path d="M6.68212 10.3309C6.68141 10.4254 6.66211 10.5214 6.62228 10.6138C6.46288 10.9827 6.03456 11.1527 5.66559 10.9932C3.34646 9.99135 2.27484 7.28956 3.27673 4.97049C3.43614 4.60157 3.86445 4.43162 4.23343 4.59103C4.6024 4.75049 4.77224 5.17869 4.61289 5.54778C3.92935 7.13002 4.66052 8.97355 6.24277 9.65704C6.51949 9.77662 6.68424 10.0474 6.68212 10.3309Z" fill="white"/>
</g>
<defs>
<clipPath id="clip0_1790_46">
<rect width="17.378" height="17.378" fill="white" transform="translate(0 17.377) rotate(-89.571)"/>
</clipPath>
</defs>
</svg>
