<svg width="22" height="21" viewBox="0 0 22 21" fill="none" xmlns="http://www.w3.org/2000/svg">
<g clip-path="url(#clip0_1790_56)">
<path d="M21.6501 3.79783C21.1613 4.00473 20.6539 4.16796 20.1332 4.28613C20.7069 3.76573 21.1383 3.11482 21.3816 2.38829C21.4511 2.18088 21.2151 2.00152 21.0189 2.11258C20.2946 2.52269 19.5143 2.83035 18.6998 3.02711C18.6526 3.03853 18.6038 3.04432 18.5549 3.04432C18.4065 3.04432 18.2623 2.99173 18.1489 2.8963C17.2823 2.16726 16.1677 1.76575 15.0106 1.76575C14.5099 1.76575 14.0043 1.84024 13.508 1.98719C11.9701 2.44251 10.7834 3.65345 10.4111 5.14747C10.2714 5.70785 10.2336 6.26875 10.2986 6.81454C10.3061 6.87726 10.275 6.92104 10.2559 6.94157C10.2223 6.97757 10.1746 6.9982 10.1251 6.9982C10.1195 6.9982 10.1138 6.99794 10.1082 6.99743C6.74177 6.69888 3.70606 5.15074 1.56026 2.63825C1.45084 2.5101 1.24101 2.52581 1.15379 2.66861C0.733592 3.35674 0.511529 4.14379 0.511529 4.94466C0.511529 6.17203 1.02812 7.3287 1.92543 8.17191C1.54809 8.08651 1.18287 7.95201 0.843604 7.77214C0.679471 7.6851 0.477523 7.79697 0.475216 7.97617C0.451723 9.79951 1.57008 11.4219 3.24542 12.1525C3.21168 12.1533 3.17794 12.1536 3.14415 12.1536C2.87859 12.1536 2.6097 12.1292 2.34505 12.0809C2.16021 12.0472 2.00493 12.2146 2.06232 12.3856C2.6061 14.0062 4.06785 15.2007 5.8171 15.4719C4.36533 16.4021 2.67471 16.8928 0.915103 16.8928L0.366545 16.8925C0.197531 16.8925 0.054585 16.9977 0.0115134 17.154C-0.0309144 17.3079 0.0472365 17.4702 0.191363 17.5502C2.17415 18.6517 4.43581 19.2339 6.73282 19.2339C8.74345 19.2339 10.6242 18.853 12.3229 18.1019C13.8802 17.4133 15.2564 16.429 16.4131 15.1762C17.4907 14.0093 18.3334 12.6622 18.9176 11.1723C19.4745 9.7522 19.7689 8.23688 19.7689 6.79017V6.72126C19.7688 6.48896 19.8789 6.27039 20.0709 6.1216C20.7996 5.55686 21.4342 4.89208 21.9569 4.14574C22.0949 3.94867 21.8772 3.70168 21.6501 3.79783Z" fill="#DDDDDD"/>
</g>
<defs>
<clipPath id="clip0_1790_56">
<rect width="22" height="21" fill="white"/>
</clipPath>
</defs>
</svg>
