<svg width="18" height="18" viewBox="0 0 18 18" fill="none" xmlns="http://www.w3.org/2000/svg">
<g clip-path="url(#clip0_1123_94)">
<path d="M12.1483 2.15152C9.41962 -0.618272 4.94621 -0.651706 2.17637 2.07686C-0.593479 4.80554 -0.62697 9.2789 2.10171 12.0487C4.41662 14.3985 7.88282 14.7777 10.6038 13.1731C10.6038 13.1731 10.8005 13.0578 10.9568 13.2166C11.8494 14.1227 14.5274 16.841 14.5274 16.841C15.238 17.5625 16.2379 17.7404 16.8778 17.1102L16.9878 17.0017C17.6277 16.3714 17.4648 15.3689 16.7541 14.6475C16.7541 14.6475 14.0817 11.9349 13.191 11.0307C13.0271 10.8643 13.1453 10.6694 13.1453 10.6694C14.7904 7.97284 14.4632 4.50136 12.1483 2.15152ZM10.7816 10.8118C8.73493 12.828 5.42961 12.8032 3.4134 10.7566C1.39724 8.70997 1.42193 5.40465 3.46856 3.3885C5.51514 1.37228 8.82051 1.39703 10.8367 3.44366C12.8528 5.49029 12.8281 8.79555 10.7816 10.8118Z" fill="white"/>
<path d="M6.68212 10.3321C6.68141 10.4267 6.66211 10.5227 6.62228 10.615C6.46288 10.9839 6.03456 11.1539 5.66559 10.9945C3.34646 9.99257 2.27484 7.29078 3.27673 4.97171C3.43614 4.6028 3.86445 4.43284 4.23343 4.59225C4.6024 4.75171 4.77224 5.17991 4.61289 5.549C3.92935 7.13124 4.66052 8.97477 6.24277 9.65826C6.51949 9.77784 6.68424 10.0486 6.68212 10.3321Z" fill="white"/>
</g>
<defs>
<clipPath id="clip0_1123_94">
<rect width="17.378" height="17.378" fill="white" transform="translate(0 17.377) rotate(-89.571)"/>
</clipPath>
</defs>
</svg>
