<svg width="23" height="23" viewBox="0 0 23 23" fill="none" xmlns="http://www.w3.org/2000/svg">
<path d="M2.76113 11.5002C2.76113 16.3268 6.6736 20.2393 11.5002 20.2393C16.3268 20.2393 20.2393 16.3268 20.2393 11.5002C20.2393 6.6736 16.3268 2.76113 11.5002 2.76113C6.6736 2.76113 2.76113 6.6736 2.76113 11.5002ZM3.99551 11.5002C3.99551 7.37835 7.37835 3.99551 11.5002 3.99551C15.622 3.99551 19.0049 7.37835 19.0049 11.5002C19.0049 15.622 15.622 19.0049 11.5002 19.0049C7.37835 19.0049 3.99551 15.622 3.99551 11.5002Z" fill="white" stroke="white" stroke-width="0.3"/>
<path d="M6.93604 10.8471H6.78604V10.9971V12.0033V12.1533H6.93604H16.0642H16.2142V12.0033V10.9971V10.8471H16.0642H6.93604Z" fill="white" stroke="white" stroke-width="0.3"/>
<path d="M10.9971 6.78604H10.8471V6.93604V16.0642V16.2142H10.9971H12.0033H12.1533V16.0642V6.93604V6.78604H12.0033H10.9971Z" fill="white" stroke="white" stroke-width="0.3"/>
</svg>
