<svg width="62" height="33" viewBox="0 0 62 33" fill="none" xmlns="http://www.w3.org/2000/svg">
<path d="M13.872 32V26.324H0.584V21.572L14.928 0.979998H20.472V21.176H24.696V26.324H20.472V32H13.872ZM13.872 21.176V9.076H14.972L5.512 22.76V21.176H13.872ZM27.5388 32V24.96H34.6668V32H27.5388ZM49.3525 32.484C47.1818 32.484 45.0845 32.176 43.0605 31.56C41.0658 30.944 39.4525 30.0933 38.2205 29.008L40.3765 23.904C41.6965 24.872 43.0898 25.6053 44.5565 26.104C46.0232 26.5733 47.5338 26.808 49.0885 26.808C50.9072 26.808 52.2712 26.4707 53.1805 25.796C54.0898 25.1213 54.5445 24.124 54.5445 22.804C54.5445 21.572 54.1045 20.648 53.2245 20.032C52.3738 19.3867 51.0978 19.064 49.3965 19.064H44.2045V13.652H48.7805C50.2472 13.652 51.4205 13.3147 52.3005 12.64C53.1805 11.936 53.6205 10.9827 53.6205 9.78C53.6205 8.60667 53.2098 7.712 52.3885 7.096C51.5672 6.48 50.3792 6.172 48.8245 6.172C45.8618 6.172 43.2218 7.15467 40.9045 9.12L38.7045 4.104C40.0245 2.96 41.6232 2.08 43.5005 1.464C45.4072 0.818666 47.4018 0.495999 49.4845 0.495999C52.8285 0.495999 55.4392 1.244 57.3165 2.74C59.2232 4.20667 60.1765 6.26 60.1765 8.9C60.1765 10.7187 59.6632 12.288 58.6365 13.608C57.6098 14.8987 56.2018 15.764 54.4125 16.204V15.632C56.5245 15.984 58.1672 16.8493 59.3405 18.228C60.5138 19.6067 61.1005 21.3373 61.1005 23.42C61.1005 26.236 60.0445 28.4507 57.9325 30.064C55.8498 31.6773 52.9898 32.484 49.3525 32.484Z" fill="white"/>
</svg>
