<svg width="21" height="20" viewBox="0 0 21 20" fill="none" xmlns="http://www.w3.org/2000/svg">
<g clip-path="url(#clip0_1277_237)">
<path d="M18.1707 0H2.83052C1.2677 0 0.000732422 1.20659 0.000732422 2.69504V17.3049C0.000732422 18.7933 1.26765 19.9999 2.83052 19.9999H10.3962L10.4091 12.853H8.45954C8.20618 12.853 8.00054 12.6579 7.99956 12.4166L7.99021 10.1129C7.98924 9.87025 8.19549 9.67308 8.45024 9.67308H10.3963V7.44709C10.3963 4.86384 12.0529 3.45724 14.4725 3.45724H16.458C16.712 3.45724 16.918 3.65339 16.918 3.89537V5.83789C16.918 6.07978 16.7122 6.27587 16.4583 6.27602L15.2398 6.27655C13.9239 6.27655 13.6691 6.87207 13.6691 7.74602V9.67313H16.5605C16.8361 9.67313 17.0498 9.90225 17.0173 10.1628L16.7306 12.4666C16.7032 12.687 16.5069 12.8531 16.2738 12.8531H13.682L13.6691 20H18.1708C19.7337 20 21.0006 18.7934 21.0006 17.305V2.69504C21.0005 1.20659 19.7336 0 18.1707 0Z" fill="#DDDDDD"/>
</g>
<defs>
<clipPath id="clip0_1277_237">
<rect width="21" height="20" fill="white"/>
</clipPath>
</defs>
</svg>
