<svg width="21" height="21" viewBox="0 0 21 21" fill="none" xmlns="http://www.w3.org/2000/svg">
<g clip-path="url(#clip0_1277_241)">
<path d="M14.744 0H6.25601C2.80643 0 0 2.80643 0 6.25601V14.744C0 18.1936 2.80643 21 6.25601 21H14.744C18.1936 21 21 18.1936 21 14.744V6.25601C21 2.80643 18.1935 0 14.744 0ZM18.8874 14.744C18.8874 17.0323 17.0323 18.8874 14.744 18.8874H6.25601C3.96769 18.8874 2.1126 17.0323 2.1126 14.744V6.25601C2.1126 3.96765 3.96769 2.1126 6.25601 2.1126H14.744C17.0323 2.1126 18.8874 3.96765 18.8874 6.25601V14.744Z" fill="#DDDDDD"/>
<path d="M10.5001 5.06836C7.50522 5.06836 5.06873 7.50486 5.06873 10.4997C5.06873 13.4945 7.50522 15.931 10.5001 15.931C13.4949 15.931 15.9314 13.4945 15.9314 10.4997C15.9314 7.50482 13.4949 5.06836 10.5001 5.06836ZM10.5001 13.8185C8.66717 13.8185 7.18133 12.3326 7.18133 10.4997C7.18133 8.6668 8.6672 7.18096 10.5001 7.18096C12.333 7.18096 13.8188 8.6668 13.8188 10.4997C13.8188 12.3326 12.3329 13.8185 10.5001 13.8185Z" fill="#DDDDDD"/>
<path d="M15.9418 6.41152C16.6606 6.41152 17.2433 5.82883 17.2433 5.11006C17.2433 4.39128 16.6606 3.80859 15.9418 3.80859C15.2231 3.80859 14.6404 4.39128 14.6404 5.11006C14.6404 5.82883 15.2231 6.41152 15.9418 6.41152Z" fill="#DDDDDD"/>
</g>
<defs>
<clipPath id="clip0_1277_241">
<rect width="21" height="21" fill="white"/>
</clipPath>
</defs>
</svg>
