<svg width="21" height="20" viewBox="0 0 21 20" fill="none" xmlns="http://www.w3.org/2000/svg">
<g clip-path="url(#clip0_1277_239)">
<path d="M19.1004 0H1.89962C0.8505 0 0 0.81 0 1.80916V18.1908C0 19.19 0.8505 20 1.89962 20H19.1003C20.1495 20 21 19.19 21 18.1908V1.80916C21 0.81 20.1495 0 19.1004 0ZM6.49829 17.2693C6.49829 17.5601 6.2508 17.7958 5.94547 17.7958H3.59226C3.28694 17.7958 3.03945 17.5601 3.03945 17.2693V7.8745C3.03945 7.58372 3.28694 7.34801 3.59226 7.34801H5.94547C6.2508 7.34801 6.49829 7.58372 6.49829 7.8745V17.2693ZM4.76887 6.46241C3.53421 6.46241 2.5333 5.50916 2.5333 4.3333C2.5333 3.15743 3.53421 2.20419 4.76887 2.20419C6.00353 2.20419 7.00443 3.15743 7.00443 4.3333C7.00443 5.50916 6.00358 6.46241 4.76887 6.46241ZM18.7961 17.3117C18.7961 17.5791 18.5685 17.7958 18.2878 17.7958H15.7626C15.4819 17.7958 15.2544 17.5791 15.2544 17.3117V12.905C15.2544 12.2476 15.4568 10.0243 13.4505 10.0243C11.8942 10.0243 11.5786 11.5461 11.5152 12.2291V17.3117C11.5152 17.5791 11.2877 17.7958 11.0069 17.7958H8.56465C8.28395 17.7958 8.05636 17.5791 8.05636 17.3117V7.83209C8.05636 7.56476 8.28395 7.34801 8.56465 7.34801H11.0069C11.2876 7.34801 11.5152 7.56476 11.5152 7.83209V8.65173C12.0923 7.82696 12.9499 7.19037 14.7758 7.19037C18.8192 7.19037 18.7961 10.7881 18.7961 12.7648V17.3117Z" fill="#DDDDDD"/>
</g>
<defs>
<clipPath id="clip0_1277_239">
<rect width="21" height="20" fill="white"/>
</clipPath>
</defs>
</svg>
