<svg width="18" height="18" viewBox="0 0 18 18" fill="none" xmlns="http://www.w3.org/2000/svg">
<g clip-path="url(#clip0_1277_224)">
<path d="M12.1483 2.15054C9.41962 -0.619248 4.94621 -0.652682 2.17637 2.07589C-0.593479 4.80457 -0.62697 9.27792 2.10171 12.0477C4.41662 14.3975 7.88282 14.7768 10.6038 13.1721C10.6038 13.1721 10.8005 13.0568 10.9568 13.2157C11.8494 14.1217 14.5274 16.8401 14.5274 16.8401C15.238 17.5615 16.2379 17.7394 16.8778 17.1092L16.9878 17.0007C17.6277 16.3705 17.4648 15.3679 16.7541 14.6466C16.7541 14.6466 14.0817 11.934 13.191 11.0298C13.0271 10.8633 13.1453 10.6684 13.1453 10.6684C14.7904 7.97186 14.4632 4.50038 12.1483 2.15054ZM10.7816 10.8108C8.73493 12.8271 5.42961 12.8023 3.4134 10.7556C1.39724 8.709 1.42193 5.40368 3.46856 3.38752C5.51514 1.3713 8.82051 1.39605 10.8367 3.44268C12.8528 5.48932 12.8281 8.79458 10.7816 10.8108Z" fill="white"/>
<path d="M6.68212 10.3302C6.68141 10.4247 6.66211 10.5207 6.62228 10.6131C6.46288 10.982 6.03456 11.1519 5.66559 10.9925C3.34646 9.99062 2.27484 7.28883 3.27673 4.96976C3.43614 4.60084 3.86445 4.43089 4.23343 4.5903C4.6024 4.74976 4.77224 5.17796 4.61289 5.54704C3.92935 7.12929 4.66052 8.97282 6.24277 9.6563C6.51949 9.77589 6.68424 10.0466 6.68212 10.3302Z" fill="white"/>
</g>
<defs>
<clipPath id="clip0_1277_224">
<rect width="17.378" height="17.378" fill="white" transform="translate(0 17.377) rotate(-89.571)"/>
</clipPath>
</defs>
</svg>
