<svg width="17" height="18" viewBox="0 0 17 18" fill="none" xmlns="http://www.w3.org/2000/svg">
<g clip-path="url(#clip0_1277_220)">
<path d="M14.5104 11.3665C13.5846 10.4408 12.4827 9.75541 11.2804 9.34054C12.5681 8.45365 13.4141 6.96937 13.4141 5.29102C13.4141 2.58141 11.2096 0.376953 8.5 0.376953C5.79039 0.376953 3.58594 2.58141 3.58594 5.29102C3.58594 6.96937 4.43192 8.45365 5.71964 9.34054C4.51735 9.75541 3.41541 10.4408 2.4896 11.3665C0.884166 12.972 0 15.1065 0 17.377H1.32812C1.32812 13.4224 4.54541 10.2051 8.5 10.2051C12.4546 10.2051 15.6719 13.4224 15.6719 17.377H17C17 15.1065 16.1158 12.972 14.5104 11.3665ZM8.5 8.87695C6.52272 8.87695 4.91406 7.26833 4.91406 5.29102C4.91406 3.3137 6.52272 1.70508 8.5 1.70508C10.4773 1.70508 12.0859 3.3137 12.0859 5.29102C12.0859 7.26833 10.4773 8.87695 8.5 8.87695Z" fill="white"/>
</g>
<defs>
<clipPath id="clip0_1277_220">
<rect width="17" height="17" fill="white" transform="translate(0 0.376953)"/>
</clipPath>
</defs>
</svg>
